<?xml version="1.0" encoding="utf-8"?>
<svg xmlns="http://www.w3.org/2000/svg" fill="none" version="1.1" viewBox="-91.7087 -120.055 495.228 240.11" x="-91.7087pt" y="-120.055pt" width="495.228pt" height="240.11pt" stroke-width="0.566929" stroke-miterlimit="10.000000">
 <g stroke-width="4.535433">
  <path d="M-81.9036 110.25L22.6772 5.66929M34.0157 -5.66929C56.6929 -28.3465 85.0394 -28.3465 113.386 -0C141.732 28.3465 170.079 28.3465 192.756 5.66929M204.094 -5.66929C226.772 -28.3465 255.118 -28.3465 283.465 -0L384.307 100.843" stroke="#007fff"/>
  <g stroke-linecap="butt" stroke-dasharray="none">
   <path d="M387.666 91.2127L396.85 113.386L374.677 104.201L384.307 100.843Z" fill="#007fff"/>
  </g>
  <g stroke-linecap="butt" stroke-dasharray="none">
   <path d="M-79.4961 111.09L-85.0394 113.386L-82.7433 107.843L-81.9036 110.25Z" fill="#007fff"/>
  </g>
 </g>
 <g stroke-width="0.801759">
  <path d="M396.85 113.386L402.52 116.22M396.85 113.386L399.685 119.055" stroke="#007fff"/>
 </g>
 <g stroke-width="4.535433">
  <path d="M393.715 -110.25L289.134 -5.66929M277.795 5.66929C255.118 28.3465 226.772 28.3465 198.425 -0C170.079 -28.3465 141.732 -28.3465 119.055 -5.66929M107.717 5.66929C85.0394 28.3465 56.6929 28.3465 28.3465 -0L-72.4964 -100.843" stroke="#007091"/>
  <g stroke-linecap="butt" stroke-dasharray="none">
   <path d="M-75.855 -91.2127L-85.0394 -113.386L-62.8663 -104.201L-72.4964 -100.843Z" fill="#007091"/>
  </g>
  <g stroke-linecap="butt" stroke-dasharray="none">
   <path d="M391.307 -111.09L396.85 -113.386L394.554 -107.843L393.715 -110.25Z" fill="#007091"/>
  </g>
 </g>
 <g stroke-width="0.801759">
  <path d="M-85.0394 -113.386L-90.7087 -116.22M-85.0394 -113.386L-87.874 -119.055" stroke="#007091"/>
 </g>
</svg>
